<svg width="40" height="40" xmlns="http://www.w3.org/2000/svg">
  <g fill="none" fill-rule="evenodd">
    <path fill-opacity=".01" fill="#FFF" d="M0 0h40v40H0z"/>
    <path d="M38 20c0-9.941-8.059-18-18-18S2 10.059 2 20s8.059 18 18 18a18 18 0 0 0 18-18" fill="#FFF" fill-rule="nonzero"/>
    <path d="M18.351 2.055C9.201 2.769 2 10.42 2 19.753c0 9.805 7.948 17.754 17.753 17.754a17.753 17.753 0 0 0 17.754-17.754c0-9.494-7.454-17.248-16.829-17.73v12.024c0 .259.13.501.346.645l1.594 1.063V12.84c0-1.76 1.52-3.186 3.396-3.186 2.132 0 2.809 1.385 3.881 3.061a39.82 39.82 0 0 1 4.946 11.2c.126.47.189.953.189 1.438 0 2.968-3.03 5.112-6.072 4.296l-2.885-.773c-2.045-.549-3.455-2.302-3.455-4.297l-.012-6.125-3.091-2.05-3.103 2.05v6.125c0 1.995-1.41 3.749-3.455 4.297l-2.885.773C7.03 30.465 4 28.321 4 25.353c0-.485.063-.967.189-1.437a39.82 39.82 0 0 1 4.945-11.2c1.073-1.677 1.75-3.062 3.882-3.062 1.875 0 3.396 1.427 3.396 3.186v2.915l1.594-1.063a.776.776 0 0 0 .345-.645V2.055z" fill="#A0A7AC"/>
  </g>
</svg>
