<svg width="40" height="40" xmlns="http://www.w3.org/2000/svg">
  <g fill="none" fill-rule="evenodd">
    <path fill-opacity=".01" fill="#FFF" d="M0 0h40v40H0z"/>
    <path d="M22.597 5.5c-1.15-2-4.043-2-5.2 0L2.405 31.498c-1.15 1.994.287 4.5 2.6 4.5h29.991c2.307 0 3.75-2.5 2.6-4.5L22.597 5.5z" fill="#FFF"/>
    <path d="M22.904 35.998h12.092c2.307 0 3.75-2.5 2.6-4.5L22.597 5.5c-1.15-2-4.043-2-5.2 0L2.405 31.498c-1.15 1.994.287 4.5 2.6 4.5h14.039c-3.807-4.331-8.677-4.836-8.677-10.428 0-7.171 13.454-5.602 10.293-16.737 12.079 12.408-.061 12.9-.061 18.876 0 4.318 2.19 5.23 2.305 8.29z" fill="#F4805E" fill-rule="nonzero"/>
  </g>
</svg>
