<svg class="map-svg" width="24" height="24" viewBox="0 0 40 40" xmlns="http://www.w3.org/2000/svg">
  <g fill="none" fill-rule="evenodd">
    <path fill-opacity=".01" fill="#FFF" d="M0 0h40v40H0z"/>
    <path d="M38 20c0-9.941-8.059-18-18-18S2 10.059 2 20s8.059 18 18 18a18 18 0 0 0 18-18" fill="#FFF" fill-rule="nonzero"/>
    <path d="M38 20c0-9.941-8.059-18-18-18S2 10.059 2 20s8.059 18 18 18c.395 0 .788-.017 1.177-.042C17 31.59 10.56 31.628 10.56 24.835c0-7.873 14.518-6.15 11.107-18.378 13.033 13.625-.07 14.168-.07 20.728 0 5.28 2.935 5.925 2.435 10.355A18 18 0 0 0 38 20" fill="#F4805E" fill-rule="nonzero"/>
  </g>
</svg>
