<svg width="40" height="40" xmlns="http://www.w3.org/2000/svg">
  <g fill="none" fill-rule="evenodd">
    <path fill-opacity=".01" fill="#FFF" d="M0 0h40v40H0z"/>
    <circle fill="#AC997C" cx="20" cy="20" r="18"/>
    <path d="M26.58 22.574h-4.428a1.48 1.48 0 0 1-1.475-1.476 1.48 1.48 0 0 1 1.475-1.475h4.427s4.427-4.935 4.427-7.378a4.428 4.428 0 0 0-8.854 0c0 1.175 1.024 2.923 2.09 4.426h-2.09a4.434 4.434 0 0 0-4.427 4.427 4.434 4.434 0 0 0 4.427 4.427h4.427a1.48 1.48 0 0 1 1.476 1.476 1.48 1.48 0 0 1-1.476 1.475H15.95a31.836 31.836 0 0 1-2.181 2.951h12.81a4.434 4.434 0 0 0 4.427-4.426 4.434 4.434 0 0 0-4.427-4.427zm0-11.805c.815 0 1.475.66 1.475 1.476s-.66 1.475-1.476 1.475-1.475-.66-1.475-1.475c0-.817.659-1.476 1.475-1.476zm-14.757 8.854a4.428 4.428 0 0 0-4.427 4.426c0 2.444 4.427 7.378 4.427 7.378s4.427-4.934 4.427-7.378a4.428 4.428 0 0 0-4.427-4.426zm0 5.902c-.816 0-1.476-.66-1.476-1.476s.66-1.475 1.476-1.475 1.476.66 1.476 1.475c0 .817-.66 1.476-1.476 1.476z" fill="#FFF" fill-rule="nonzero"/>
  </g>
</svg>
