<svg width="40" height="40" xmlns="http://www.w3.org/2000/svg">
  <g fill="none" fill-rule="evenodd">
    <path fill-opacity=".01" fill="#FFF" d="M0 0h40v40H0z"/>
    <path d="M38 20c0-9.941-8.059-18-18-18S2 10.059 2 20s8.059 18 18 18a18 18 0 0 0 18-18" fill="#FBCF62" fill-rule="nonzero"/>
    <path d="M9.763 34.808c-.37-.256-.729-.526-1.078-.808h.087v-3.981c0-2.07 1.273-3.408 3.725-3.408H17.091c2.597 0 3.65-2.926 2.79-4.957.355.08.725.128 1.105.128 2.788 0 5.047-2.32 5.047-5.182 0-2.864-2.26-5.184-5.047-5.184-2.003 0-3.729 1.201-4.544 2.938-2.195.602-3.573 2.475-3.573 4.682 0 1.04.38 2.301 1.151 3.394h-2.715c-3.95 0-6.306 3.377-6.305 6.764v.76C3.104 27.101 2 23.68 2 20c0-9.941 8.059-18 18-18s18 8.059 18 18a18 18 0 0 1-18 18c-1.614 0-3.178-.212-4.666-.61v-4.75c.007-.829.236-1.359.628-1.737.394-.375 1.053-.656 2.113-.658 0-.002 4.585-.002 4.623-.002 1.271 0 2.351-.596 3.024-1.45.687-.86 1.017-2.99 1.018-4.068 0-.242-.021-.485-.056-.727.255.049.517.079.785.079 2.312 0 4.185-1.925 4.185-4.298 0-1.068-.38-2.042-1.016-2.863a6.18 6.18 0 0 0 1.14-3.585c0-3.373-2.664-6.11-5.95-6.11-2.267 0-4.234 1.303-5.238 3.218a5.75 5.75 0 0 1 .396-.014c3.33 0 6.04 2.77 6.04 6.176 0 3.346-2.618 6.079-5.872 6.17.08 1.075-.182 2.179-.768 3.065-.754 1.139-1.925 1.767-3.295 1.767h-4.594c-1.814 0-2.734.813-2.734 2.416v4.789zm2.6-13.37c-.317-.793-.487-1.62-.486-2.402 0-1.63.614-3.08 1.673-4.133a4.563 4.563 0 0 0-1.263-.182c-2.652 0-4.803 2.207-4.803 4.93 0 .917.251 1.77.677 2.505a7.026 7.026 0 0 1 3.144-.718h1.058z" fill="#A0A7AC" fill-rule="nonzero"/>
  </g>
</svg>
