<svg width="24" height="24" xmlns="http://www.w3.org/2000/svg">
  <g fill="none" fill-rule="evenodd">
    <path fill-opacity=".01" fill="#FFFFFF" d="M0 0h24v24H0z"/>
    <path d="M22.8 12c0-5.965-4.835-10.8-10.8-10.8C6.035 1.2 1.2 6.035 1.2 12c0 5.965 4.835 10.8 10.8 10.8A10.8 10.8 0 0 0 22.8 12" fill="#FFFFFF" fill-rule="nonzero"/>
    <path d="M22.651 11.926A10.726 10.726 0 0 1 11.926 22.65C6.002 22.651 1.2 17.849 1.2 11.926 1.2 6.002 6.002 1.2 11.926 1.2c5.923 0 10.725 4.802 10.725 10.726zm-8.803-4.904h-7.03c-.643 0-1.165.522-1.165 1.165v7.03c0 .643.522 1.165 1.165 1.165h7.03c.643 0 1.165-.522 1.165-1.165v-7.03c0-.643-.522-1.165-1.165-1.165zm4.616.919l-2.671 1.843v3.836l2.671 1.84c.517.356 1.229-.007 1.229-.628V8.57c0-.62-.71-.985-1.229-.63z" fill="#AC997C"/>
  </g>
</svg>