<svg width="40" height="40" xmlns="http://www.w3.org/2000/svg">
    <g fill="none" fill-rule="evenodd">
    <path fill-opacity=".01" fill="#FFF" d="M0 0h40v40H0z"/>
    <path d="M37.752 19.876C37.752 10.003 29.748 2 19.876 2 10.003 2 2 10.003 2 19.876c0 9.872 8.003 17.876 17.876 17.876a17.876 17.876 0 0 0 17.876-17.876" fill="#AC997C"/>
    <path d="M14.11 10h-6.1A1.01 1.01 0 0 0 7 11.01v6.1c0 .559.453 1.011 1.01 1.011h6.1a1.01 1.01 0 0 0 1.011-1.01v-6.1A1.01 1.01 0 0 0 14.111 10zm4.006.797l-2.318 1.6v3.328l2.318 1.597c.449.309 1.066-.006 1.066-.546v-5.433c0-.537-.615-.854-1.066-.546zM28.88 15h-6.76A1.12 1.12 0 0 0 21 16.12v6.76c0 .618.502 1.12 1.12 1.12h6.76A1.12 1.12 0 0 0 30 22.88v-6.76A1.12 1.12 0 0 0 28.88 15zm4.439.884l-2.569 1.771v3.69l2.569 1.77c.497.341 1.181-.008 1.181-.606v-6.02c0-.596-.682-.948-1.181-.605zM17.129 25H11.87a.871.871 0 0 0-.871.871v5.258c0 .48.39.871.871.871h5.258c.48 0 .871-.39.871-.871V25.87a.871.871 0 0 0-.871-.871zm3.452.687l-1.998 1.378v2.87l1.998 1.376c.387.266.919-.006.919-.47v-4.683c0-.463-.53-.737-.919-.47z" fill="#FFF" fill-rule="nonzero"/>
    </g>
</svg>