<svg width="40" height="40" xmlns="http://www.w3.org/2000/svg">
  <g fill="none" fill-rule="evenodd">
    <path fill-opacity=".01" fill="#FFF" d="M0 0h40v40H0z"/>
    <path d="M38 20c0-9.941-8.059-18-18-18S2 10.059 2 20s8.059 18 18 18a18 18 0 0 0 18-18" fill="#FECC5C" fill-rule="nonzero"/>
    <path d="M31.176 34.111a17.917 17.917 0 0 1-8.465 3.686c2.106-6.313-1.632-6.104-1.632-11.587 0-5.765 11.959-6.24.06-18.21C24.253 18.741 11 17.228 11 24.146c0 6.668 7.33 5.838 10.951 13.75-.64.069-1.292.104-1.951.104-9.941 0-18-8.059-18-18S10.059 2 20 2s18 8.059 18 18c0 4.943-1.993 9.421-5.219 12.674-.061-2.133-1.617-2.749-1.617-5.732 0-4.102 8.51-4.44.043-12.958 2.216 7.643-7.215 6.566-7.215 11.49 0 4.395 4.477 4.212 7.184 8.637z" fill="#F4805E"/>
    <path d="M9.764 28.263c1.548-3.974-.678-3.69-.678-6.796 0-3.106 6.443-3.362.032-9.812 1.678 5.788-5.463 4.972-5.463 8.7 0 3.727 4.252 3.106 6.112 7.908" stroke="#AC0015" fill="#FECC5C" stroke-linecap="round"/>
    <path d="M22.904 37.313c2.083-6.28-1.825-5.63-1.825-11.103 0-5.765 11.959-6.24.06-18.21C24.253 18.741 11 17.228 11 24.146c0 6.654 7.057 5.433 10.686 13.291" stroke="#AC0015" stroke-linecap="round"/>
    <path d="M32.6 32.162c-.162-1.952-1.436-2.346-1.436-5.22 0-4.102 8.51-4.44.043-12.958 2.216 7.643-7.215 6.566-7.215 11.49 0 4.348 4.199 3.943 6.914 8.224" stroke="#AC0015" stroke-linecap="round"/>
  </g>
</svg>