<svg width="40" height="40" xmlns="http://www.w3.org/2000/svg">
  <g fill="none" fill-rule="evenodd">
    <path fill-opacity=".01" fill="#FFF" d="M0 0h40v40H0z"/>
    <path d="M38 20c0-9.941-8.059-18-18-18S2 10.059 2 20s8.059 18 18 18a18 18 0 0 0 18-18" fill="#FFF" fill-rule="nonzero"/>
    <path d="M37.752 19.876a17.876 17.876 0 0 1-17.876 17.876C10.003 37.752 2 29.748 2 19.876 2 10.003 10.003 2 19.876 2c9.872 0 17.876 8.003 17.876 17.876zM23.08 11.703H11.363c-1.072 0-1.941.87-1.941 1.942v11.716c0 1.073.869 1.942 1.941 1.942H23.08c1.072 0 1.942-.87 1.942-1.942V13.645c0-1.072-.87-1.942-1.942-1.942zm7.694 1.532l-4.452 3.071V22.7l4.452 3.068c.861.593 2.048-.013 2.048-1.049V14.283c0-1.032-1.183-1.641-2.048-1.048z" fill="#AC997C"/>
  </g>
</svg>
