<svg width="40" height="40" xmlns="http://www.w3.org/2000/svg">
    <g fill="none" fill-rule="evenodd">
    <path fill-opacity=".01" fill="#FFF" d="M0 0h40v40H0z"/>
    <path d="M38 20c0-9.941-8.059-18-18-18S2 10.059 2 20s8.059 18 18 18a18 18 0 0 0 18-18" fill="#FFF" fill-rule="nonzero"/>
    <path d="M7.424 32.704c.103.007.206.01.31.01h11.834a3.945 3.945 0 0 0 3.945-3.944c0-2.065-1.592-3.74-3.612-3.911.283-.473.456-1.02.456-1.612a3.156 3.156 0 0 0-3.156-3.156c-.849 0-1.616.34-2.183.884-.806-1.46-2.342-2.462-4.129-2.462a4.734 4.734 0 0 0-4.733 4.734c0 .096.022.186.028.281a4.758 4.758 0 0 0-2.856 2.728 17.841 17.841 0 0 1-1.08-6.132c0-9.872 8.004-17.876 17.876-17.876C29.997 2.248 38 10.252 38 20.124A17.876 17.876 0 0 1 20.124 38a17.82 17.82 0 0 1-12.7-5.296zm24.468-12.767a.84.84 0 0 1 0-1.27l2.34-2.027c.63-.545.289-1.58-.542-1.642l-3.037-.23a.82.82 0 0 1-.734-1.008l.737-3.08c.192-.803-.688-1.432-1.385-.99l-2.589 1.64a.803.803 0 0 1-1.176-.381L24.35 8.053a.911.911 0 0 0-1.702 0l-1.153 2.884a.814.814 0 0 1-1.192.385L17.724 9.69c-.697-.441-1.577.188-1.384.99l.737 3.08a.82.82 0 0 1-.735 1.008l-3.015.229c-.838.063-1.183 1.107-.548 1.658l1.54 1.333c.386.255.75.543 1.074.88a4.695 4.695 0 0 1 1.794-.354c.294 0 .58.035.86.087.35-2.711 2.647-4.82 5.451-4.82a5.529 5.529 0 0 1 5.523 5.522 5.529 5.529 0 0 1-5.523 5.523c-.047 0-.09-.013-.136-.014.682.65 1.213 1.453 1.487 2.38h1.332c.308 0 .61.09.868.26l2.223 1.464c.7.443 1.572-.206 1.376-1.024l-.724-3.027a.837.837 0 0 1 .75-1.029l3.016-.228c.83-.064 1.172-1.098.543-1.642l-2.34-2.028zM21.9 22.893a3.91 3.91 0 0 0 1.614.354 3.95 3.95 0 0 0 3.944-3.945 3.95 3.95 0 0 0-3.944-3.944 3.943 3.943 0 0 0-3.933 3.82 4.71 4.71 0 0 1 2.32 3.715z" fill="#AC997C" fill-rule="nonzero"/>
    </g>
</svg>