<svg width="40" height="40" xmlns="http://www.w3.org/2000/svg">
    <g fill="none" fill-rule="evenodd">
    <path fill-opacity=".01" fill="#FFFFFF" d="M0 0h40v40H0z"/>
    <path d="M38 20c0-9.941-8.059-18-18-18S2 10.059 2 20s8.059 18 18 18a18 18 0 0 0 18-18" fill="#FFFFFF" fill-rule="nonzero"/>
    <path d="M25.434 36.866a17.874 17.874 0 0 0 12.318-16.99C37.752 10.003 29.748 2 19.876 2 10.003 2 2 10.003 2 19.876c0 8.075 5.354 14.9 12.706 17.117a8.005 8.005 0 0 1-2.52-4.302C9.767 31.918 8 29.677 8 27h4v-2.367C9.675 23.806 8 21.608 8 19h4v-2.367C9.675 15.806 8 13.608 8 11h4V9a2 2 0 0 1 2-2h12a2 2 0 0 1 2 2v2h4c0 2.609-1.675 4.806-4 5.633V19h4c0 2.609-1.675 4.806-4 5.633V27h4c0 2.677-1.766 4.918-4.187 5.69a8.003 8.003 0 0 1-2.379 4.176z" fill="#AC997C"/>
    <path d="M20 33a3 3 0 1 1 0-6 3 3 0 0 1 0 6zM20 25a3 3 0 1 1 0-6 3 3 0 0 1 0 6zM20 17a3 3 0 1 1 0-6 3 3 0 0 1 0 6z" fill="#AC997C"/>
    </g>
</svg>