<svg width="40" height="40" xmlns="http://www.w3.org/2000/svg">
    <g fill="none" fill-rule="evenodd">
    <path fill-opacity=".01" fill="#FFFFFF" d="M0 0h40v40H0z"/>
    <path d="M34.143 2H5.857A3.858 3.858 0 0 0 2 5.857v28.286A3.858 3.858 0 0 0 5.857 38h28.286A3.858 3.858 0 0 0 38 34.143V5.857A3.858 3.858 0 0 0 34.143 2z" fill-opacity=".7" fill="#F768A1" fill-rule="nonzero"/>
    <path d="M34.143 2H5.857A3.858 3.858 0 0 0 2 5.857v28.286A3.858 3.858 0 0 0 5.857 38h28.286A3.858 3.858 0 0 0 38 34.143V5.857A3.858 3.858 0 0 0 34.143 2zm-.482 32.143H6.339a.484.484 0 0 1-.482-.482V6.339c0-.265.217-.482.482-.482h27.322c.265 0 .482.217.482.482v27.322a.484.484 0 0 1-.482.482z" fill="#F768A1" fill-rule="nonzero"/>
    <path d="M16.296 11.433a2.328 2.328 0 1 1 .001-4.657 2.328 2.328 0 0 1-.001 4.657zm-4.583 7.23l1.13-.572.47-1.426c.713-2.163 2.702-3.676 4.957-3.68 1.746-.005 2.71.49 4.524 1.222a4.626 4.626 0 0 1 2.41 2.24l.325.66a1.557 1.557 0 0 1-.688 2.08 1.53 1.53 0 0 1-2.061-.693l-.325-.66a1.541 1.541 0 0 0-.8-.747l-1.3-.524.737 2.944a3.114 3.114 0 0 1-.722 2.852l-2.905 3.171a3.13 3.13 0 0 0-.723 1.343l-.887 3.555a1.555 1.555 0 0 1-1.882 1.13 1.555 1.555 0 0 1-1.13-1.882l1.077-4.316c.126-.5.373-.965.722-1.343l2.207-2.41-.834-3.332-.267.8a3.093 3.093 0 0 1-1.537 1.795l-1.13.572a1.53 1.53 0 0 1-2.061-.693 1.57 1.57 0 0 1 .693-2.086zm11.1 6.823c.156.393.389.747.69 1.043l2.424 2.43c.606.606.606 1.59 0 2.196a1.548 1.548 0 0 1-2.192 0l-2.88-2.88a3.152 3.152 0 0 1-.69-1.043l-.654-1.639c2.682-2.924 1.877-2.027 2.299-2.604l1.004 2.497zM39 13.298v-3.214a.802.802 0 0 0-.803-.803H31.5V5.806c0-.717-.864-1.075-1.373-.57l-5.892 5.886a.804.804 0 0 0 0 1.138l5.892 5.882c.506.506 1.373.148 1.373-.569v-3.471h6.696a.802.802 0 0 0 .803-.804z" fill="#FFFFFF" fill-rule="nonzero"/>
    </g>
</svg>