<?xml version="1.0" encoding="UTF-8"?>
<svg width="204px" height="56px" viewBox="0 0 204 56" version="1.1" xmlns="http://www.w3.org/2000/svg" xmlns:xlink="http://www.w3.org/1999/xlink">
    <!-- Generator: Sketch 45.2 (43514) - http://www.bohemiancoding.com/sketch -->
    <title>evacuation-order-legend</title>
    <desc>Created with Sketch.</desc>
    <defs>
        <polygon id="path-1" points="0 15.9583036 56.991301 15.9583036 56.991301 0 119.42754 0 117.051888 2.4435242 117.051888 3.78836138 107.04123 13.8079169 107.04123 16.5902433 91.1833944 25.9543203 87.5691112 25.9543203 78.8012833 24.2789782 80.1406843 23.2535831 80.1406843 21.7960423 78.8012833 21.7960423 72.9415091 21.7960423 71.3946899 24.2789782 71.3946899 25.9543203 69.5086118 25.193744 63.050096 30.7141451 63.050096 32.339704 49.0842167 41.3407788 42.3259102 46.9787234 0 46.9787234"></polygon>
    </defs>
    <g id="Page-1" stroke="none" stroke-width="1" fill="none" fill-rule="evenodd">
        <g id="evacuation-order-legend">
            <g id="Path-2">
                <use fill="#A456A0" fill-rule="evenodd" xlink:href="#path-1"></use>
                <path stroke="#7A1977" stroke-width="2" d="M1,16.9583036 L1,45.9787234 L41.9635629,45.9787234 L48.4436286,40.5728941 L48.5424796,40.5002308 L62.050096,31.7945086 L62.050096,30.2533724 L69.3200014,24.0394381 L70.3946899,24.472815 L70.3946899,23.9929686 L72.3863107,20.7960423 L81.1406843,20.7960423 L81.1406843,23.7078953 L87.6637939,24.9543203 L90.9101825,24.9543203 L106.04123,16.0194128 L106.04123,13.3939635 L116.051888,3.37440801 L116.051888,2.0375363 L117.060605,1 L57.991301,1 L57.991301,16.9583036 L1,16.9583036 Z M79.0932737,22.7960423 L79.5328051,22.4595535 L79.1406843,23.2535831 L79.1406843,21.7960423 L80.1406843,22.7960423 L79.0932737,22.7960423 Z"></path>
            </g>
            <path d="M23.3729673,17.8723404 L23.3729673,45.9574468" id="Line" stroke="#7A1977" stroke-width="2" stroke-linecap="square"></path>
        </g>
    </g>
</svg>