<svg width="40" height="40" xmlns="http://www.w3.org/2000/svg">
    <g fill="none" fill-rule="evenodd">
    <path fill-opacity=".01" fill="#FFFFFF" d="M0 0h40v40H0z"/>
    <path d="M38 20c0-9.941-8.059-18-18-18S2 10.059 2 20s8.059 18 18 18a18 18 0 0 0 18-18" fill-opacity=".7" fill="#C00177" fill-rule="nonzero"/>
    <path d="M38 20a18 18 0 0 1-18 18c-9.941 0-18-8.059-18-18S10.059 2 20 2s18 8.059 18 18zm-3 0c0-8.284-6.716-15-15-15-8.284 0-15 6.716-15 15 0 8.284 6.716 15 15 15a15 15 0 0 0 15-15z" fill="#C00177" fill-rule="nonzero"/>
    <path d="M19.614 7a3.076 3.076 0 1 1 0 6.153 3.076 3.076 0 0 1 0-6.153zm2.308 6.922h-.546a4.224 4.224 0 0 1-3.523 0h-.546A2.307 2.307 0 0 0 15 16.229v6.537c0 .637.516 1.153 1.154 1.153h.769v6.537c0 .638.516 1.154 1.153 1.154h3.077c.637 0 1.153-.516 1.153-1.154V23.92h.77c.636 0 1.153-.516 1.153-1.153v-6.537a2.307 2.307 0 0 0-2.307-2.307zM31.323 17.2a2.635 2.635 0 0 1-2.632 2.633 2.635 2.635 0 0 1-2.632-2.632 2.635 2.635 0 0 1 2.632-2.632 2.635 2.635 0 0 1 2.632 2.632zm-4.96-13.382l.448 8.948a.79.79 0 0 0 .789.75h2.182a.79.79 0 0 0 .789-.75l.447-8.948a.79.79 0 0 0-.789-.83h-3.077a.79.79 0 0 0-.788.83z" fill="#FFFFFF" fill-rule="nonzero"/>
    </g>
</svg>
