    <svg width="40" height="40" xmlns="http://www.w3.org/2000/svg">
      <g fill="none" fill-rule="evenodd">
        <path fill-opacity=".01" fill="#FFFFFF" d="M0 0h40v40H0z"/>
        <path d="M22.888 36.44c-1.278 2.223-4.493 2.223-5.778 0L.451 7.553c-1.277-2.215.32-5 2.89-5h33.324c2.562 0 4.166 2.778 2.888 5L22.888 36.44z" fill-opacity=".7" fill="#C00177" fill-rule="nonzero"/>
        <path d="M22.888 36.44c-1.278 2.223-4.493 2.223-5.778 0L.451 7.553c-1.277-2.215.32-5 2.89-5h33.324c2.562 0 4.166 2.778 2.888 5L22.888 36.44zM3.333 5.887L20 34.774 36.665 5.887H3.333z" fill="#C00177" fill-rule="nonzero"/>
        <path d="M20.077 11.615a2.308 2.308 0 1 0 0-4.615 2.308 2.308 0 0 0 0 4.615zm-7.611 10.648l-.712 1.66H8.538a1.539 1.539 0 0 0 0 3.077h3.724c.925 0 1.759-.55 2.12-1.399l.423-.987-.513-.302a4.578 4.578 0 0 1-1.826-2.049zm12.996-4.494h-2.117l-1.253-2.56c-.601-1.229-1.704-2.127-2.97-2.45l-3.418-1.016a4.596 4.596 0 0 0-3.886.824L9.91 14.03a1.537 1.537 0 1 0 1.872 2.442l1.908-1.462c.369-.284.838-.385 1.215-.296l.707.21-1.801 4.202a3.085 3.085 0 0 0 1.264 3.861l4.086 2.412-1.321 4.218a1.538 1.538 0 1 0 2.936.92l1.521-4.86a2.317 2.317 0 0 0-1.04-2.614l-2.945-1.738 1.506-3.763.974 1.991a2.322 2.322 0 0 0 2.073 1.293h2.596a1.539 1.539 0 0 0 0-3.076zM24 12.01V9.293c0-.376.303-.678.679-.678h5.655V5.68a.68.68 0 0 1 1.16-.481l4.977 4.971a.68.68 0 0 1 0 .962L31.494 16.1a.68.68 0 0 1-1.16-.48v-2.933H24.68a.677.677 0 0 1-.679-.679z" fill="#FFFFFF" fill-rule="nonzero"/>
      </g>
    </svg>
    