<?xml version="1.0" encoding="UTF-8"?>
<svg width="204px" height="56px" viewBox="0 0 204 56" version="1.1" xmlns="http://www.w3.org/2000/svg" xmlns:xlink="http://www.w3.org/1999/xlink">
    <!-- Generator: Sketch 45.2 (43514) - http://www.bohemiancoding.com/sketch -->
    <title>evacuation-all-clear-legend</title>
    <desc>Created with Sketch.</desc>
    <defs>
        <path d="M1.98963874,39.0883503 C2.22952436,38.3607704 2.64162513,37.2057137 3.22594105,35.6231803 L7.41662444,37.4990239 L8.77656245,36.5611021 C8.65172392,20.5810326 8.96524017,11.7729563 9.71711122,10.1368732 C10.4689823,8.50079015 12.4598799,7.68274862 15.6898042,7.68274862 L21.7116204,8.63405656 L25.4597204,7.68274862 L28.7878833,5.96218417 L39.4283671,5.96218417 C47.5970766,6.21750102 52.3415108,6.21750102 53.6616696,5.96218417 C55.6419078,5.57920889 54.22337,5.00892447 55.8305712,4.08812538 C56.9020387,3.47425932 59.2902687,2.90133278 62.9952612,2.36934575 L79.6882544,4.08812538 L92.669806,4.08812538 L97.5739874,1.4064365 L102.141984,1.4064365 L107.056001,0 L113.582988,4.08812538 L117.755789,2.36934575 C119.029072,1.68868685 119.99287,2.26161339 120.647182,4.08812538 C121.301494,5.91463738 121.085767,7.42994777 120,8.63405656 L117.755789,10.1368732 L113.582988,10.1368732 L110.566268,12.1510402 L105.582511,12.1510402 L103.300748,13.8278766 L102.141984,16.8094149 L99.4900605,20.4049306 L67.5364349,33.680406 L49.9824159,27.9199063 L36.2820016,30.2348151 L36.2820016,35.6231803 L26.7150478,35.6231803 C27.5392264,39.8169074 27.5392264,41.913771 26.7150478,41.913771 C25.4787799,41.913771 22.9085485,41.4782646 21.7116204,41.913771 C20.9136684,42.2041086 20.9136684,42.8109467 21.7116204,43.7342852 C23.3082747,45.1440652 23.3082747,46.2277471 21.7116204,46.985331 C20.1149661,47.7429149 17.1182147,48.0811379 12.7213662,48 L8.77656245,46.985331 C5.66563948,47.6412175 3.40333157,47.1467038 1.98963874,45.5017899 C-0.130900513,43.0344191 1.6298103,40.1797203 1.98963874,39.0883503 Z" id="path-1"></path>
    </defs>
    <g id="Page-1" stroke="none" stroke-width="1" fill="none" fill-rule="evenodd">
        <g id="evacuation-all-clear-legend">
            <g id="Path-3">
                <use fill="#F995BC" fill-rule="evenodd" xlink:href="#path-1"></use>
                <path stroke="#F668A1" stroke-width="2" d="M12.8565828,47.0022295 C17.043743,47.0726326 19.8791229,46.7479609 21.2829454,46.0818723 C22.1567001,45.6672913 22.1567001,45.4612948 21.0497435,44.4838977 L20.9550096,44.3881507 C19.763424,43.0093249 19.763424,41.5584911 21.3696972,40.9740431 C22.0743588,40.7176495 22.9809186,40.6766717 24.2988841,40.754607 C24.5683341,40.7705404 24.8316788,40.7897499 25.2136986,40.8201413 C25.7782032,40.8650503 26.0881374,40.888996 26.3032417,40.9013892 C26.3217606,40.7581414 26.3331818,40.569826 26.3331818,40.3411233 C26.3331818,39.3714017 26.1344566,37.8546205 25.7338172,35.8160182 L25.4993929,34.6231803 L35.2820016,34.6231803 L35.2820016,29.3896071 L50.0594452,26.8927166 L67.4955504,32.6145219 L98.8500509,19.5879593 L101.25815,16.3230247 L102.474081,13.1943919 L105.254582,11.1510402 L110.263114,11.1510402 L113.279834,9.13687322 L117.451891,9.13687322 L119.333899,7.87660238 C120.091106,6.97825006 120.225099,5.87508953 119.705765,4.42536974 C119.235565,3.11280609 118.880753,2.90188958 118.227227,3.25124539 L118.136647,3.29397958 L113.488164,5.20869261 L106.902796,1.08400051 L102.282272,2.4064365 L97.8295403,2.4064365 L92.9253588,5.08812538 L79.6882544,5.08812538 L79.5858318,5.08286636 L63.0157637,3.3767436 C59.5054732,3.88576178 57.2412827,4.43239159 56.327686,4.9558102 C55.952164,5.17095457 55.9382334,5.190741 55.8623014,5.45201077 C55.6182794,6.29165058 55.0897852,6.70451845 53.8515497,6.94399145 C52.4212237,7.22061449 47.6810663,7.22061449 39.4283671,6.96218417 L29.0310808,6.96218417 L25.8169885,8.62377743 L21.7585033,9.65386443 L15.6123311,8.68291111 C12.7786982,8.69484041 11.173188,9.36322264 10.6257549,10.5544455 C9.9715893,11.9779201 9.65420466,20.8946766 9.77653194,36.5532902 L9.78067287,37.0833542 L7.52139404,38.6415332 L3.79546783,36.9737253 C3.40693281,38.0395321 3.12129564,38.849631 2.93935117,39.4014738 C2.86668873,39.6218611 2.48522708,40.5307162 2.43794177,40.651969 C1.94708739,41.9106577 1.81187668,42.8971977 2.13391469,43.8112699 C2.26076191,44.1713129 2.46128406,44.5163447 2.74803658,44.849998 C3.89143561,46.1804093 5.78441447,46.594192 8.57026426,46.0068419 L8.79913847,45.9585875 L12.8565828,47.0022295 Z"></path>
            </g>
            <polyline id="Path-4" stroke="#F668A1" stroke-width="2" points="38.4439259 6.94917405 39.6755493 13.7727721 49.7641362 15.5573513 49.7641362 18.3924588 52.0462878 22.8046771 52.0462878 27.2705207"></polyline>
        </g>
    </g>
</svg>