<svg width="40" height="40" xmlns="http://www.w3.org/2000/svg">
  <g fill="none" fill-rule="evenodd">
    <path fill-opacity=".01" fill="#FFF" d="M0 0h40v40H0z"/>
    <path d="M38 20c0-9.941-8.059-18-18-18S2 10.059 2 20s8.059 18 18 18a18 18 0 0 0 18-18" fill="#FECC5C" fill-rule="nonzero"/>
    <path d="M24.106 37.53C32.068 35.672 38 28.529 38 20c0-9.941-8.059-18-18-18S2 10.059 2 20s8.059 18 18 18c.289 0 .576-.007.86-.02C16.48 31.782 10 31.704 10 24.858 10 16.778 25.158 18.545 21.597 6c13.61 13.98-.069 14.535-.069 21.267 0 5.274 2.9 6.04 2.578 10.263z" fill="#F4805E"/>
    <path d="M24.13 37.036v-.119c.013-3.7-2.602-4.642-2.602-9.65 0-6.732 13.678-7.287.07-21.267C25.157 18.545 10 16.777 10 24.858c0 6.05 5.06 6.814 9.26 11.186.486.507.96.873 1.459 1.452" stroke="#AC0015" stroke-linecap="round"/>
  </g>
</svg>