<svg width="40" height="40" xmlns="http://www.w3.org/2000/svg">
    <g fill="none" fill-rule="evenodd">
    <path fill-opacity=".01" fill="#FFF" d="M0 0h40v40H0z"/>
    <path d="M37.753 19.753C37.753 9.948 29.805 2 20 2S2.247 9.948 2.247 19.753 10.195 37.507 20 37.507a17.753 17.753 0 0 0 17.753-17.754" fill="#FFF"/>
    <path d="M19.392 37.497a17.753 17.753 0 0 0 18.361-17.743C37.753 9.947 29.805 2 20 2S2.247 9.948 2.247 19.753c0 8.79 6.387 16.088 14.773 17.505a1.394 1.394 0 0 1-.109-.951l2.702-11.41H12.65c-.85 0-1.508-.75-1.395-1.594L13.13 9.222c.093-.7.69-1.222 1.395-1.222h7.98c.924 0 1.598.877 1.36 1.77l-2.03 7.617h6.77a1.409 1.409 0 0 1 1.218 2.114L19.5 37.337c-.033.056-.069.11-.108.16z" fill="#A0A7AC" fill-rule="nonzero"/>
    </g>
</svg>