<svg width="40" height="40" xmlns="http://www.w3.org/2000/svg">
    <g fill="none" fill-rule="evenodd">
    <path fill-opacity=".01" fill="#FFF" d="M0 0h40v40H0z"/>
    <path d="M38 20c0-9.941-8.059-18-18-18S2 10.059 2 20s8.059 18 18 18a18 18 0 0 0 18-18" fill="#FFF" fill-rule="nonzero"/>
    <path d="M28.688 35.764A17.999 17.999 0 0 1 20 38c-7.34 0-13.655-4.394-16.456-10.696l5.522-5.524.648-1.501-2.405-2.405-1.516.634-3.663 3.664A18.184 18.184 0 0 1 2 20c0-9.941 8.059-18 18-18s18 8.059 18 18a18 18 0 0 1-6.864 14.142c-.185-.502-.32-1.101-.32-1.912 0-3.396 6.9-3.676.034-10.728C32.647 27.83 25 26.939 25 31.015c0 2.589 1.837 3.259 3.688 4.75zM16.978 12.99l1.515-.635 6.51-6.51-3.272-3.274-6.51 6.512-.648 1.502 2.405 2.405zM6.412 14.749a.968.968 0 0 0 0 1.364l5.05 5.05a.968.968 0 0 0 1.365 0l5.05-5.05a.967.967 0 0 0 0-1.364l-5.05-5.05a.967.967 0 0 0-1.364 0l-5.05 5.05zm14.002 3.638a6.725 6.725 0 0 1-5.96 6.099l.201 2.058a8.788 8.788 0 0 0 7.82-7.955l-2.061-.202zm4.15.437a10.797 10.797 0 0 1-9.74 9.744l.2 2.057c6.144-.564 11.033-5.455 11.6-11.6l-2.06-.2z" fill="#F4805E" fill-rule="nonzero"/>
    </g>
</svg>
