<svg width="40" height="40" xmlns="http://www.w3.org/2000/svg">
    <g fill="none" fill-rule="evenodd">
    <path fill-opacity=".01" fill="#FFF" d="M0 0h40v40H0z"/>
    <path d="M31.375 6.122a.873.873 0 0 0-.033.022c-3.232 2.305-5.77 1.634-7.422 3.748-1.462 1.871-1.148 4.555.701 6 1.85 1.444 4.529 1.1 5.99-.772 1.651-2.112.396-4.371 1.817-8.044a17.7 17.7 0 0 1 5.325 12.677A17.753 17.753 0 0 1 20 37.507c-9.805 0-17.753-7.949-17.753-17.754C2.247 9.948 10.195 2 20 2c4.328 0 8.294 1.549 11.375 4.122zM19.356 7.895c.245-.588-.435-1.156-.982-.768-2.857 2.038-5.1 1.445-6.56 3.313-1.293 1.655-1.016 4.027.62 5.304 1.634 1.277 4.002.972 5.295-.682 1.467-1.878.336-3.887 1.627-7.167zm16.28 8.816c.194-.467-.346-.918-.78-.61-2.27 1.618-4.05 1.147-5.21 2.631-1.026 1.314-.806 3.197.492 4.211 1.298 1.015 3.18.773 4.205-.541 1.165-1.491.267-3.087 1.293-5.691zM14.34 26.242l1.856-1.856a1.483 1.483 0 0 0 1.628-2.414A1.484 1.484 0 0 0 15.41 23.6l-1.855 1.856-5.298-5.302a.536.536 0 0 0-.758.005A8.52 8.52 0 0 0 5 26.229c0 2.302.888 4.458 2.499 6.069a8.519 8.519 0 0 0 6.07 2.498 8.521 8.521 0 0 0 6.069-2.498.533.533 0 0 0 0-.754l-5.298-5.302z" fill="#A0A7AC"/>
    <path d="M13.273 14.668a2.391 2.391 0 0 1-.411-3.352.341.341 0 1 1 .537.42 1.708 1.708 0 0 0 .294 2.395.341.341 0 1 1-.42.537zM25.572 14.675a2.705 2.705 0 0 1-.466-3.793.386.386 0 1 1 .608.475 1.932 1.932 0 0 0 .333 2.71.386.386 0 1 1-.475.608zM30.805 22.09a1.899 1.899 0 0 1-.327-2.663.27.27 0 1 1 .427.334 1.356 1.356 0 0 0 .234 1.901.27.27 0 1 1-.334.427z" stroke="#979797" fill="#D8D8D8"/>
    <path d="M8.19 23.11l2.6 2.599a.65.65 0 1 0 .919-.92l-2.6-2.599a.65.65 0 1 0-.919.92z" fill="#A0A7AC"/>
    <path d="M8.18 22.115c-.52.433-.907.946-1.155 1.535a5.437 5.437 0 0 0-.403 1.899.5.5 0 0 0 .999.041 4.444 4.444 0 0 1 .326-1.552c.184-.439.474-.822.873-1.153a.5.5 0 0 0-.64-.77z" fill="#A0A7AC"/>
    </g>
</svg>