<svg width="40" height="40" xmlns="http://www.w3.org/2000/svg">
<g fill="none" fill-rule="evenodd">
    <path fill-opacity=".01" fill="#FFFFFF" d="M0 0h40v40H0z"/>
    <path d="M38 20c0-9.941-8.059-18-18-18S2 10.059 2 20s8.059 18 18 18a18 18 0 0 0 18-18" fill="#FFFFFF" fill-rule="nonzero"/>
    <path d="M13.938 36.954V31.75h.624c.518 0 .938-.42.938-.938V25.5c0-1.036-.84-1.875-1.875-1.875h-.444a3.433 3.433 0 0 1-2.862 0h-.444C8.839 23.625 8 24.465 8 25.5v5.313c0 .517.42.937.938.937h.624v2.917C4.986 31.403 2 26.05 2 20c0-9.941 8.059-18 18-18s18 8.059 18 18a18 18 0 0 1-6.913 14.18v-2.43h.625c.518 0 .937-.42.937-.938V25.5c0-1.036-.84-1.875-1.875-1.875h-.443a3.433 3.433 0 0 1-2.863 0h-.444c-1.035 0-1.875.84-1.875 1.875v5.313c0 .517.42.937.938.937h.625v4.952a17.998 17.998 0 0 1-4.754 1.191v-2.726h.417c.345 0 .625-.28.625-.625V31c0-.69-.56-1.25-1.25-1.25h-.296a2.289 2.289 0 0 1-1.908 0h-.296c-.69 0-1.25.56-1.25 1.25v3.542c0 .345.28.625.625.625h.417v2.808a17.927 17.927 0 0 1-5.105-1.021zM20.5 26a1.667 1.667 0 1 0 0 3.333 1.667 1.667 0 0 0 0-3.333zm8.4-8a2.5 2.5 0 1 0 0 5 2.5 2.5 0 0 0 0-5zm-17.15 0a2.5 2.5 0 1 0 0 5 2.5 2.5 0 0 0 0-5zM21.799 4.646a2.83 2.83 0 0 0-3.601 0L3.256 16.955a.71.71 0 0 0-.094.998l1.505 1.83a.71.71 0 0 0 .998.094L19.55 8.442a.72.72 0 0 1 .903 0l13.885 11.435a.71.71 0 0 0 .997-.094l1.506-1.83a.71.71 0 0 0-.1-.998L21.798 4.646z" fill="#F995BD" fill-rule="nonzero"/>
</g>
</svg>
