<?xml version="1.0" encoding="UTF-8"?>
<svg width="204px" height="56px" viewBox="0 0 204 56" version="1.1" xmlns="http://www.w3.org/2000/svg" xmlns:xlink="http://www.w3.org/1999/xlink">
    <!-- Generator: Sketch 45.2 (43514) - http://www.bohemiancoding.com/sketch -->
    <title>wildfire-perimeter-legend</title>
    <desc>Created with Sketch.</desc>
    <defs>
        <path d="M33.7486826,4.35917622 C33.2853725,1.45305874 34.494167,1.40367497e-16 37.3750663,0 C40.2559655,0 44.0364931,1.45305874 48.716649,4.35917622 C48.6708177,7.21084852 48.8743976,8.85563029 49.3273885,9.29352152 C49.7803794,9.73141275 51.278298,9.73141275 53.8211442,9.29352152 C55.7334099,8.67043729 57.0058801,7.97383203 57.638555,7.20370572 C58.5875672,6.04851625 54.7346241,5.03297432 57.638555,4.64676076 C60.5424858,4.2605472 64.7842758,6.60516564 67.1512879,5.9385425 C69.5183,5.27191937 63.3002598,3.10744181 67.1512879,1.96768371 C69.71864,1.20784497 74.1909015,1.20784497 80.5680724,1.96768371 C87.5618914,4.66385112 91.3177142,6.40919178 91.8355408,7.20370572 C92.3533673,7.99821965 90.1890892,8.69482492 85.3427065,9.29352152 L81.8603761,9.29352152 L85.3427065,13.405302 L98.1884973,14.8061675 L101.596713,18.3991475 L109.900652,15.946067 L114.488434,24.5694278 L120.646188,21.335537 L119.478104,26.8502708 L117.254674,30.2626623 L85.3427065,30.2626623 L85.3427065,33.4005176 L91.8355408,33.4005176 L101.596713,35.7972294 L107.436089,33.4005176 L106.274268,41.320314 L91.8355408,45.6742709 L85.3427065,43.6115956 C81.0670394,41.1167865 78.9292058,38.9472891 78.9292058,37.1031033 C78.9292058,35.2589176 78.9292058,34.0247223 78.9292058,33.4005176 L70.3382048,33.4005176 L67.1512879,37.1031033 L73.3716737,43.6115956 L72.0783262,45.6742709 L63.327614,48 L53.8211442,48 L50.0768039,35.7972294 L50.0768039,26.8502708 L35.3416191,24 L24.6336618,30.2626623 L22.6555395,31.7960986 L0.310585918,28.1676272 C-0.103528639,26.3280313 -0.103528639,24.9388222 0.310585918,24 C0.931757754,22.5917667 3.32422139,22.7931368 3.32422139,21.335537 C3.32422139,19.8779373 0.310585918,20.8501988 0.310585918,18.3991475 C0.310585918,15.9480963 2.77461887,13.8674743 3.32422139,13.405302 C3.87382391,12.9431296 5.05113022,14.8061675 6.24912842,13.405302 C7.44712663,12.0044364 3.32422139,11.3833373 3.32422139,9.29352152 C3.32422139,7.20370572 16.6244783,2.51030153 20.4884777,1.96768371 C24.3524772,1.42506588 24.6396826,5.47405636 27.2151376,5.9385425 C28.9321076,6.24819993 31.109956,5.72174451 33.7486826,4.35917622 Z" id="path-1"></path>
    </defs>
    <g id="Page-1" stroke="none" stroke-width="1" fill="none" fill-rule="evenodd">
        <g id="wildfire-perimeter-legend">
            <g id="Path">
                <use fill="#FEBF65" fill-rule="evenodd" xlink:href="#path-1"></use>
                <path stroke="#FF260C" stroke-width="2" d="M3.6633846,14.4329442 C3.20339491,14.8401105 2.80355606,15.2499885 2.40199064,15.7686146 C1.70291858,16.6714736 1.31058592,17.5671256 1.31058592,18.3991475 C1.31058592,18.9260843 1.45916249,19.0713879 2.12724084,19.289097 C2.21429492,19.3174656 2.30013078,19.3438261 2.49059409,19.401709 C3.7182653,19.7782777 4.32422139,20.2067793 4.32422139,21.335537 C4.32422139,22.5019967 3.72718363,23.0232778 2.43304903,23.6107888 C2.29351137,23.6738507 2.22053929,23.7068347 2.16121459,23.7340343 C1.56390435,24.0078928 1.32154314,24.1859132 1.22552953,24.4035817 C0.957597546,25.0109994 0.920632439,25.9788747 1.15348096,27.2914016 L22.3865703,30.7393236 L24.0209925,29.472323 L24.1288075,29.3994577 L35.1618186,22.9466843 L51.0768039,26.0251674 L51.0768039,35.6472583 L54.5603184,47 L63.1969933,47 L71.4405047,44.8090727 L72.1109534,43.739818 L65.8016177,37.138256 L69.8795188,32.4005176 L79.9292058,32.4005176 L79.9292058,37.1031033 C79.9292058,38.4499505 81.8327073,40.3924027 85.7516265,42.6922542 L91.8432485,44.6274704 L105.377101,40.5463761 L106.191898,34.9921366 L101.674843,36.8461156 L91.7145698,34.4005176 L84.3427065,34.4005176 L84.3427065,29.2626623 L116.712704,29.2626623 L118.538453,26.4606085 L119.226877,23.2104387 L114.072778,25.9172363 L109.401182,17.1363377 L101.29268,19.5316841 L97.7154299,15.760507 L84.837542,14.3561412 L79.7030157,8.29352152 L85.2809862,8.29352152 C87.614969,8.00341923 89.2946167,7.69190596 90.2943165,7.37013765 C90.3429051,7.35449867 90.3893754,7.33897226 90.4336835,7.3236341 C89.1142757,6.53633243 85.6131366,4.98725828 80.3254477,2.94591713 C74.1410048,2.21589937 69.8204563,2.22058874 67.4350816,2.92656908 C67.2510109,2.981047 67.1021407,3.03589741 66.9880083,3.08825345 C67.0950275,3.21841273 67.237541,3.36422584 67.4728684,3.58870786 C67.4779223,3.59352885 67.6853723,3.79052598 67.7456079,3.8484516 C67.8549325,3.95358364 67.9428503,4.04083059 68.0241682,4.12598112 C68.2605558,4.37350978 68.4291182,4.5897996 68.5476198,4.83273799 C69.0092704,5.77916175 68.4692965,6.60625215 67.422373,6.90109789 C66.1392613,7.26246145 65.0603169,7.08395202 62.0882302,6.29779664 C61.8256147,6.22833144 61.6552713,6.18363059 61.4808007,6.13864333 C60.0562132,5.77131323 59.0845723,5.5950945 58.3028198,5.60183964 C58.9327746,6.32406982 59.089646,7.01270253 58.4112462,7.83848771 C57.6304145,8.78895873 56.2084756,9.56738958 54.1309487,10.2443218 L53.9908514,10.279016 C51.0777589,10.7806656 49.4270102,10.7806656 48.6323664,10.0125099 C47.9271916,9.33084093 47.6938011,7.75238803 47.7103992,4.91467861 C43.3975776,2.2951489 39.9371157,1 37.3750663,1 C35.1152468,1 34.3688183,1.89726112 34.7362115,4.20173861 L34.8500676,4.91590197 L34.207497,5.24770836 C31.3908992,6.70212459 29.0083009,7.2780746 27.0376499,6.92266553 C25.8820866,6.71425841 25.1778771,6.14086332 24.1294531,4.88418766 C24.0826876,4.82813303 24.0055996,4.73526695 23.8847536,4.58983453 C22.6990107,3.16669809 22.0244996,2.76179363 20.6275423,2.95796703 C16.2569256,3.57172864 4.32422139,8.27956882 4.32422139,9.29352152 C4.32422139,9.62550145 4.63944022,9.98877338 5.4618973,10.5535278 C5.56218396,10.6223913 5.94655186,10.8804371 6.03376693,10.9401669 C6.27052524,11.1023124 6.44849843,11.232814 6.60972114,11.3671441 C7.52669201,12.1311607 7.82195064,13.1047606 7.00912003,14.0552348 C6.05044627,15.1762491 5.03686427,15.1506332 3.82928016,14.519661 C3.76249658,14.4847661 3.70801026,14.4562691 3.6633846,14.4329442 Z"></path>
            </g>
        </g>
    </g>
</svg>