<svg width="40" height="40" xmlns="http://www.w3.org/2000/svg">
    <g fill="none" fill-rule="evenodd">
    <path fill-opacity=".01" fill="#FFF" d="M0 0h40v40H0z"/>
    <path d="M38 20c0-9.941-8.059-18-18-18S2 10.059 2 20s8.059 18 18 18a18 18 0 0 0 18-18" fill="#FFF"/>
    <path d="M3.366 13.534C5.886 6.797 12.383 2 20 2c9.805 0 17.753 7.948 17.753 17.753A17.753 17.753 0 0 1 20 37.507c-8.642 0-15.842-6.175-17.428-14.353h8.554c.958 0 1.85.652 2.006 1.598a1.927 1.927 0 0 1-1.898 2.25 1.928 1.928 0 0 1-1.826-1.317c-.126-.38-.517-.607-.917-.607H6.522c-.589 0-1.066.53-.953 1.108a5.782 5.782 0 0 0 5.665 4.664 5.779 5.779 0 0 0 5.724-6.531c-.374-2.91-2.991-5.013-5.924-5.013H2.576a.96.96 0 0 0-.325.057c.014-.676.067-1.341.155-1.996.055.01.112.015.17.015h20.202a5.783 5.783 0 0 0 5.642-7.016c-.458-2.178-2.22-3.94-4.398-4.397a5.784 5.784 0 0 0-6.91 4.541c-.112.575.366 1.1.952 1.1h1.973c.4 0 .79-.228.916-.607a1.926 1.926 0 0 1 1.825-1.317 1.926 1.926 0 0 1 1.897 2.25c-.156.945-1.047 1.598-2.006 1.598H3.366zm22.238 5.772h-9.399a7.563 7.563 0 0 1 2.392 3.848h7.007a2.889 2.889 0 0 1 2.886 2.886 2.889 2.889 0 0 1-2.886 2.886 2.87 2.87 0 0 1-2.499-1.466c-.171-.302-.522-.458-.87-.458h-2.033c-.656 0-1.14.65-.923 1.269 1.068 3.042 4.241 5.095 7.78 4.35 2.479-.523 4.516-2.505 5.091-4.971 1.028-4.408-2.308-8.344-6.546-8.344z" fill="#A0A7AC" fill-rule="nonzero"/>
    </g>
</svg>