<?xml version="1.0" encoding="UTF-8"?>
<svg width="204px" height="56px" viewBox="0 0 204 56" version="1.1" xmlns="http://www.w3.org/2000/svg" xmlns:xlink="http://www.w3.org/1999/xlink">
    <!-- Generator: Sketch 45.2 (43514) - http://www.bohemiancoding.com/sketch -->
    <title>wind-conditions</title>
    <desc>Created with Sketch.</desc>
    <defs></defs>
    <g id="Page-1" stroke="none" stroke-width="1" fill="none" fill-rule="evenodd">
        <g id="wind-conditions">
            <text id="0-10" font-family="Verdana" font-size="8" font-weight="normal" fill="#000000">
                <tspan x="2.5546875" y="37">0-10</tspan>
            </text>
            <text id="20-30" font-family="Verdana" font-size="8" font-weight="normal" fill="#000000">
                <tspan x="33.0117188" y="37">20-30</tspan>
            </text>
            <text id="40-50" font-family="Verdana" font-size="8" font-weight="normal" fill="#000000">
                <tspan x="66.0117188" y="37">40-50</tspan>
            </text>
            <text id="60-70" font-family="Verdana" font-size="8" font-weight="normal" fill="#000000">
                <tspan x="101.011719" y="37">60-70</tspan>
            </text>
            <text id="km/hr" font-family="Verdana" font-size="8" font-weight="normal" fill="#000000">
                <tspan x="89.6875" y="47">km/hr</tspan>
            </text>
            <text id="90-100" font-family="Verdana" font-size="8" font-weight="normal" fill="#000000">
                <tspan x="133.46875" y="37">90-100</tspan>
            </text>
            <text id="110+" font-family="Verdana" font-size="8" font-weight="normal" fill="#000000">
                <tspan x="171.097656" y="37">110+</tspan>
            </text>
            <path d="M2,22.0641974 L2,17.7789614 C2,17.1852776 2.47762527,16.7076524 3.07130901,16.7076524 L11.9988841,16.7076524 L11.9988841,12.0742409 C11.9988841,11.1189904 13.1505412,10.6413651 13.8290369,11.315397 L21.685303,19.1627355 C22.104899,19.5823315 22.104899,20.2608272 21.685303,20.6804233 L13.8290369,28.5232979 C13.155005,29.1973298 11.9988841,28.7197046 11.9988841,27.7644541 L11.9988841,23.1355064 L3.07130901,23.1355064 C2.47762527,23.1355064 2,22.6578811 2,22.0641974 Z" id="Shape" fill="#00097A" fill-rule="nonzero"></path>
            <path d="M36,22.0641974 L36,17.7789614 C36,17.1852776 36.4776253,16.7076524 37.071309,16.7076524 L45.9988841,16.7076524 L45.9988841,12.0742409 C45.9988841,11.1189904 47.1505412,10.6413651 47.8290369,11.315397 L55.685303,19.1627355 C56.104899,19.5823315 56.104899,20.2608272 55.685303,20.6804233 L47.8290369,28.5232979 C47.155005,29.1973298 45.9988841,28.7197046 45.9988841,27.7644541 L45.9988841,23.1355064 L37.071309,23.1355064 C36.4776253,23.1355064 36,22.6578811 36,22.0641974 Z" id="Shape-Copy" fill="#0032F4" fill-rule="nonzero"></path>
            <path d="M24,21.0853086 L24,18.7284287 C24,18.4019027 24.2626939,18.1392088 24.58922,18.1392088 L29.4993862,18.1392088 L29.4993862,15.5908325 C29.4993862,15.0654447 30.1327977,14.8027508 30.5059703,15.1734684 L34.8269166,19.4895045 C35.0576945,19.7202823 35.0576945,20.093455 34.8269166,20.3242328 L30.5059703,24.6378139 C30.1352528,25.0085314 29.4993862,24.7458375 29.4993862,24.2204497 L29.4993862,21.6745285 L24.58922,21.6745285 C24.2626939,21.6745285 24,21.4118346 24,21.0853086 Z" id="Shape-Copy-6" fill="#0015C3" fill-rule="nonzero"></path>
            <path d="M57,21.0853086 L57,18.7284287 C57,18.4019027 57.2626939,18.1392088 57.58922,18.1392088 L62.4993862,18.1392088 L62.4993862,15.5908325 C62.4993862,15.0654447 63.1327977,14.8027508 63.5059703,15.1734684 L67.8269166,19.4895045 C68.0576945,19.7202823 68.0576945,20.093455 67.8269166,20.3242328 L63.5059703,24.6378139 C63.1352528,25.0085314 62.4993862,24.7458375 62.4993862,24.2204497 L62.4993862,21.6745285 L57.58922,21.6745285 C57.2626939,21.6745285 57,21.4118346 57,21.0853086 Z" id="Shape-Copy-7" fill="#3C9AF7" fill-rule="nonzero"></path>
            <path d="M91,21.0853086 L91,18.7284287 C91,18.4019027 91.2626939,18.1392088 91.58922,18.1392088 L96.4993862,18.1392088 L96.4993862,15.5908325 C96.4993862,15.0654447 97.1327977,14.8027508 97.5059703,15.1734684 L101.826917,19.4895045 C102.057694,19.7202823 102.057694,20.093455 101.826917,20.3242328 L97.5059703,24.6378139 C97.1352528,25.0085314 96.4993862,24.7458375 96.4993862,24.2204497 L96.4993862,21.6745285 L91.58922,21.6745285 C91.2626939,21.6745285 91,21.4118346 91,21.0853086 Z" id="Shape-Copy-8" fill="#91F99E" fill-rule="nonzero"></path>
            <path d="M125,21.0853086 L125,18.7284287 C125,18.4019027 125.262694,18.1392088 125.58922,18.1392088 L130.499386,18.1392088 L130.499386,15.5908325 C130.499386,15.0654447 131.132798,14.8027508 131.50597,15.1734684 L135.826917,19.4895045 C136.057694,19.7202823 136.057694,20.093455 135.826917,20.3242328 L131.50597,24.6378139 C131.135253,25.0085314 130.499386,24.7458375 130.499386,24.2204497 L130.499386,21.6745285 L125.58922,21.6745285 C125.262694,21.6745285 125,21.4118346 125,21.0853086 Z" id="Shape-Copy-9" fill="#F08332" fill-rule="nonzero"></path>
            <path d="M160,21.0853086 L160,18.7284287 C160,18.4019027 160.262694,18.1392088 160.58922,18.1392088 L165.499386,18.1392088 L165.499386,15.5908325 C165.499386,15.0654447 166.132798,14.8027508 166.50597,15.1734684 L170.826917,19.4895045 C171.057694,19.7202823 171.057694,20.093455 170.826917,20.3242328 L166.50597,24.6378139 C166.135253,25.0085314 165.499386,24.7458375 165.499386,24.2204497 L165.499386,21.6745285 L160.58922,21.6745285 C160.262694,21.6745285 160,21.4118346 160,21.0853086 Z" id="Shape-Copy-10" fill="#BC261A" fill-rule="nonzero"></path>
            <path d="M70,22.0641974 L70,17.7789614 C70,17.1852776 70.4776253,16.7076524 71.071309,16.7076524 L79.9988841,16.7076524 L79.9988841,12.0742409 C79.9988841,11.1189904 81.1505412,10.6413651 81.8290369,11.315397 L89.685303,19.1627355 C90.104899,19.5823315 90.104899,20.2608272 89.685303,20.6804233 L81.8290369,28.5232979 C81.155005,29.1973298 79.9988841,28.7197046 79.9988841,27.7644541 L79.9988841,23.1355064 L71.071309,23.1355064 C70.4776253,23.1355064 70,22.6578811 70,22.0641974 Z" id="Shape-Copy-2" fill="#6FF9F0" fill-rule="nonzero"></path>
            <path d="M104,22.0641974 L104,17.7789614 C104,17.1852776 104.477625,16.7076524 105.071309,16.7076524 L113.998884,16.7076524 L113.998884,12.0742409 C113.998884,11.1189904 115.150541,10.6413651 115.829037,11.315397 L123.685303,19.1627355 C124.104899,19.5823315 124.104899,20.2608272 123.685303,20.6804233 L115.829037,28.5232979 C115.155005,29.1973298 113.998884,28.7197046 113.998884,27.7644541 L113.998884,23.1355064 L105.071309,23.1355064 C104.477625,23.1355064 104,22.6578811 104,22.0641974 Z" id="Shape-Copy-3" fill="#D2FB60" fill-rule="nonzero"></path>
            <path d="M138,22.0641974 L138,17.7789614 C138,17.1852776 138.477625,16.7076524 139.071309,16.7076524 L147.998884,16.7076524 L147.998884,12.0742409 C147.998884,11.1189904 149.150541,10.6413651 149.829037,11.315397 L157.685303,19.1627355 C158.104899,19.5823315 158.104899,20.2608272 157.685303,20.6804233 L149.829037,28.5232979 C149.155005,29.1973298 147.998884,28.7197046 147.998884,27.7644541 L147.998884,23.1355064 L139.071309,23.1355064 C138.477625,23.1355064 138,22.6578811 138,22.0641974 Z" id="Shape-Copy-4" fill="#EC3D24" fill-rule="nonzero"></path>
            <path d="M172,22.0641974 L172,17.7789614 C172,17.1852776 172.477625,16.7076524 173.071309,16.7076524 L181.998884,16.7076524 L181.998884,12.0742409 C181.998884,11.1189904 183.150541,10.6413651 183.829037,11.315397 L191.685303,19.1627355 C192.104899,19.5823315 192.104899,20.2608272 191.685303,20.6804233 L183.829037,28.5232979 C183.155005,29.1973298 181.998884,28.7197046 181.998884,27.7644541 L181.998884,23.1355064 L173.071309,23.1355064 C172.477625,23.1355064 172,22.6578811 172,22.0641974 Z" id="Shape-Copy-5" fill="#75140C" fill-rule="nonzero"></path>
        </g>
    </g>
</svg>